<?xml version="1.0" encoding="UTF-8"?>
<svg version="1.1" xmlns="http://www.w3.org/2000/svg" width="2360" height="1640">
<path d="M0 0 C1.875 0.8125 1.875 0.8125 4 2 C6.73140176 3.48985551 7.80601677 4 11 4 C11 4.66 11 5.32 11 6 C11.99 6.33 12.98 6.66 14 7 C14 8.65 14 10.3 14 12 C14.66 11.67 15.32 11.34 16 11 C19.0674998 10.90597969 22.11215716 10.8743611 25.17979431 10.88647461 C26.62476008 10.88625132 26.62476008 10.88625132 28.09891707 10.88602352 C31.34713512 10.88672148 34.59529756 10.89457945 37.84350586 10.90234375 C40.16402657 10.90426164 42.4845477 10.90572604 44.80506897 10.9067688 C49.81205441 10.9099368 54.81902312 10.91621586 59.82600212 10.92483521 C67.06856926 10.93717682 74.31112969 10.94346196 81.55370564 10.94776857 C93.30786212 10.95484052 105.06201174 10.96564616 116.81616211 10.97949219 C117.52002926 10.98032 118.22389641 10.98114781 118.94909287 10.98200071 C124.66001494 10.98874518 130.37093679 10.99566973 136.08185863 11.00260353 C141.07239459 11.0086554 146.06293063 11.01463596 151.0534668 11.02050781 C151.7561761 11.02133594 152.4588854 11.02216407 153.18288892 11.02301729 C164.8910232 11.03669349 176.59915761 11.04645794 188.30729777 11.05341816 C196.17762805 11.0584138 204.04793283 11.06829334 211.91825283 11.08184814 C216.80767579 11.08928684 221.69709519 11.09261924 226.58652306 11.0948143 C228.86058513 11.0966927 231.13464651 11.10030622 233.40870285 11.10574722 C236.50355924 11.11292112 239.59835881 11.11400286 242.69322205 11.11352539 C243.60138308 11.11712035 244.50954411 11.12071531 245.44522518 11.12441921 C246.27204628 11.12304486 247.09886739 11.12167051 247.95074368 11.12025452 C248.66543235 11.12117631 249.38012103 11.1220981 250.11646694 11.12304783 C252.22747766 11.06512477 252.22747766 11.06512477 255 10 C256.51053562 9.98262924 258.02222942 10.03035126 259.53041077 10.11642456 C260.47924605 10.16416079 261.42808134 10.21189701 262.40566921 10.26107979 C263.46297269 10.3165592 264.52027617 10.37203861 265.60961914 10.42919922 C277.13571258 10.947548 288.63768086 11.11304724 300.17358398 11.12939453 C301.03769744 11.13067911 301.9018109 11.13196369 302.79210961 11.13328719 C308.31400608 11.13970495 313.83588155 11.13813632 319.35777926 11.1343255 C324.2735186 11.13175046 329.1892563 11.13415322 334.10499573 11.13571167 C342.34400779 11.13751742 350.5830108 11.13516808 358.82202148 11.13037109 C368.29478217 11.12491886 377.76752135 11.12670457 387.24028152 11.1321975 C395.44146133 11.13675926 403.64263472 11.13736465 411.84381539 11.13475883 C416.71273371 11.13321444 421.58164197 11.13295129 426.45055962 11.13629532 C431.0251572 11.13921944 435.59972745 11.13711649 440.17432213 11.13140106 C441.83535975 11.13009805 443.49639975 11.13042469 445.15743637 11.13266373 C453.78914054 11.14321176 462.36831193 10.97126615 470.98640442 10.46508789 C477.53551306 10.08126294 483.93368229 9.96648443 490.48535156 10.42919922 C503.40187392 11.1628444 516.30049091 11.14508032 529.234375 11.1328125 C531.77646901 11.13348793 534.31856295 11.13445993 536.86065674 11.13571167 C542.80388927 11.13735731 548.74710372 11.13392073 554.6903336 11.1285609 C560.11445238 11.12422941 565.53854799 11.12733737 570.96266532 11.1321975 C576.86376711 11.13727188 582.76485856 11.13675039 588.66596222 11.13381577 C591.16512303 11.1331482 593.6642847 11.13396899 596.16344452 11.13629532 C599.63079636 11.1388203 603.09808276 11.13498612 606.56542969 11.12939453 C607.59901108 11.13141876 608.63259247 11.13344299 609.69749451 11.13552856 C610.63607803 11.13270874 611.57466156 11.12988892 612.54168701 11.12698364 C613.35931896 11.12660662 614.17695091 11.12622959 615.01935959 11.12584114 C617.07607628 11.12429522 617.07607628 11.12429522 619 10 C621.53278441 9.90107769 624.03738722 9.86016547 626.5703125 9.8671875 C627.70289993 9.86575241 627.70289993 9.86575241 628.85836792 9.86428833 C630.46059248 9.86360698 632.06281979 9.86545813 633.66503906 9.86962891 C636.09446597 9.87493333 638.52370421 9.86970567 640.953125 9.86328125 C642.51302124 9.86394291 644.07291736 9.86522589 645.6328125 9.8671875 C646.35083038 9.86516327 647.06884827 9.86313904 647.80862427 9.86105347 C648.50229095 9.86420563 649.19595764 9.86735779 649.91064453 9.87060547 C650.50861847 9.87140106 651.10659241 9.87219666 651.72268677 9.87301636 C653.71677942 9.98420754 655.70234184 10.23121086 657.68136215 10.5 C661.5941186 10.99454095 665.42799303 11.1257819 669.3755188 11.12698364 C670.42072766 11.12932363 670.42072766 11.12932363 671.48705184 11.13171089 C673.79754243 11.13566622 676.10796608 11.13255267 678.41845703 11.12939453 C680.08475787 11.13075097 681.75105842 11.13253228 683.4173584 11.13470459 C687.92541574 11.13924927 692.4334501 11.13750176 696.94150782 11.1343255 C701.66591102 11.13178741 706.3903123 11.1341434 711.11471558 11.13571167 C719.04506787 11.13752877 726.97541084 11.13513871 734.90576172 11.13037109 C744.06939348 11.1249256 753.233003 11.12669506 762.39663422 11.1321975 C770.27283453 11.13673721 778.14902814 11.13737508 786.02522933 11.13475883 C790.72576822 11.13320128 795.42629666 11.1329881 800.12683487 11.13629532 C804.54438569 11.13918662 808.96190784 11.13717516 813.37945557 11.13140106 C814.99917427 11.13008039 816.61889539 11.13045582 818.23861313 11.13266373 C820.451924 11.13540235 822.66514342 11.13196102 824.87844849 11.12698364 C826.11616564 11.12660662 827.35388279 11.12622959 828.62910652 11.12584114 C831.84066429 11.00594827 834.8383174 10.54230613 838 10 C839.67527001 10.28698305 841.34320732 10.62062302 843 11 C844.93189395 11.08401486 846.86633367 11.11781301 848.80004883 11.11352539 C849.94085403 11.11344986 851.08165924 11.11337433 852.2570343 11.11329651 C853.47803329 11.10813522 854.69903229 11.10297394 855.95703125 11.09765625 C857.84418098 11.09553383 857.84418098 11.09553383 859.76945496 11.09336853 C863.10178529 11.08872573 866.43404632 11.07975228 869.76635742 11.06866455 C873.17170617 11.05840503 876.5770621 11.05386121 879.98242188 11.04882812 C886.65496698 11.0378083 893.32747949 11.021077 900 11 C900.66 9.68 901.32 8.36 902 7 C906 7 906 7 908.375 8.4375 C910.95399539 10.21411129 910.95399539 10.21411129 914.1875 10.375 C915.5796875 10.684375 915.5796875 10.684375 917 11 C918.25 13.125 918.25 13.125 919 16 C919.5878125 17.7325 919.5878125 17.7325 920.1875 19.5 C921.01138126 23.04902698 920.94279747 24.57164557 920 28 C918.89004677 34.10398561 918.87110426 40.06901512 918.90234375 46.26171875 C918.9037587 47.32993362 918.90517365 48.3981485 918.90663147 49.49873352 C918.91220309 52.89501816 918.92474023 56.29123552 918.9375 59.6875 C918.94251958 61.98242091 918.94708169 64.27734287 918.95117188 66.57226562 C918.96097778 71.61681505 918.97516782 76.66133011 918.99327087 81.70585632 C918.99942479 83.80389639 919 85.90195091 919 88 C919.00396068 89.66687653 919.00850592 91.33375173 919.01345825 93.00062561 C919.05369638 107.02971149 919.0840912 121.05878619 919.10362434 135.08791447 C919.11392259 142.28967209 919.1279694 149.49138578 919.15087891 156.69311523 C919.17088991 162.9869839 919.18373381 169.28082073 919.18817699 175.57472032 C919.19076954 178.90003352 919.19787618 182.22523474 919.21146011 185.55052376 C919.22604976 189.26949531 919.22797487 192.98827967 919.22705078 196.70727539 C919.23424133 197.79288254 919.24143188 198.87848969 919.24884033 199.99699402 C919.23045898 206.86629874 918.46043927 213.28775193 917 220 C916.01 220.33 915.02 220.66 914 221 C914.33 222.65 914.66 224.3 915 226 C914.01 226.33 913.02 226.66 912 227 C912 227.99 912 228.98 912 230 C906.1911999 230.83565722 900.57385705 231.1437784 894.70996094 231.12939453 C893.8178894 231.13114685 892.92581787 231.13289917 892.00671387 231.13470459 C889.08258064 231.13907629 886.15850875 231.1362027 883.234375 231.1328125 C881.19272856 231.13348665 879.1510822 231.1344576 877.10943604 231.13571167 C872.84280631 231.13718209 868.57619759 231.13505429 864.30957031 231.13037109 C858.83968317 231.1246597 853.36984494 231.12796587 847.89995956 231.13394356 C843.68955109 231.13755452 839.47915425 231.13640836 835.26874542 231.13381577 C833.25130457 231.13314873 831.23386266 231.13396713 829.21642303 231.13629532 C826.40174043 231.13883216 823.58713759 231.13496726 820.77246094 231.12939453 C819.93914246 231.13141876 819.10582397 231.13344299 818.24725342 231.13552856 C812.41155508 231.11410305 812.41155508 231.11410305 809.9425087 230.42956352 C807.79994424 229.7813465 807.79994424 229.7813465 805 231 C802.44523095 231.09604621 799.91801808 231.13645385 797.36328125 231.12939453 C796.19942398 231.13202301 796.19942398 231.13202301 795.01205444 231.13470459 C792.44551359 231.1391083 789.87904156 231.13619031 787.3125 231.1328125 C785.53035468 231.13348596 783.74820946 231.13445635 781.96606445 231.13571167 C778.2302971 231.13718664 774.49455364 231.13504053 770.75878906 231.13037109 C765.96686399 231.12467393 761.17499492 231.12795401 756.3830719 231.13394356 C752.70283587 231.13755458 749.02261314 231.13640808 745.34237671 231.13381577 C743.57530714 231.133148 741.80823637 231.13396969 740.04116821 231.13629532 C737.57298576 231.13883068 735.10489441 231.13496871 732.63671875 231.12939453 C731.53787857 231.13243088 731.53787857 231.13243088 730.4168396 231.13552856 C727.33350852 231.1226081 724.94943653 230.98314551 722 230 C721.34 230.33 720.68 230.66 720 231 C717.76761382 230.8841823 715.53817734 230.70813986 713.3125 230.5 C708.29863151 230.09070461 703.97141304 230.18834073 699 231 C697.96875 230.835 696.9375 230.67 695.875 230.5 C692.37852955 230.04884252 689.75271043 230.14464791 686.27969837 230.49571228 C679.14276455 231.08463512 672.10165234 230.9234936 664.9575213 230.65348804 C648.40807641 230.04474572 631.86396039 229.89261393 615.30464172 229.88647461 C614.15193395 229.88598555 612.99922617 229.88549648 611.81158786 229.8849926 C604.38872958 229.88362671 596.96589106 229.89026661 589.54303825 229.89859343 C583.44414887 229.90439833 577.34526022 229.90531405 571.24636849 229.90637711 C558.80418386 229.90868831 546.36200577 229.91548289 533.9198246 229.92483521 C516.94423543 229.93753354 499.96864839 229.9435017 482.99305525 229.94776857 C475.05498459 229.94977276 467.11691404 229.9521004 459.1788435 229.95451355 C457.98783929 229.95487507 457.98783929 229.95487507 456.7727744 229.95524389 C437.95585566 229.96103093 419.13893866 229.96999044 400.32202148 229.97949219 C399.50053606 229.97990583 398.67905064 229.98031948 397.83267172 229.98074566 C386.16283559 229.98662545 374.49299954 229.99264468 362.82316351 229.998698 C348.58710581 230.00608067 334.35104807 230.01338564 320.11499023 230.02050781 C319.28864828 230.0209224 318.46230632 230.02133699 317.61092369 230.02176414 C298.75174849 230.03120903 279.89257345 230.0397552 261.03339672 230.04548645 C259.84573205 230.04584794 259.84573205 230.04584794 258.63407415 230.04621673 C250.73212972 230.04860143 242.83018525 230.05082952 234.92824071 230.05282298 C217.95973325 230.05713875 200.99123328 230.06421344 184.02272987 230.07687083 C171.6826298 230.08603501 159.34253225 230.091806 147.00242893 230.09398818 C140.31638319 230.09528111 133.63035002 230.09837623 126.94430733 230.10574722 C120.83371545 230.11245901 114.7231399 230.11464015 108.61254468 230.11311162 C106.39426 230.11338466 104.17597477 230.11537909 101.95769338 230.1192044 C98.95906577 230.12413857 95.96050196 230.12300151 92.96187305 230.12025452 C92.08699589 230.12316738 91.21211872 230.12608024 90.31073013 230.12908137 C86.95449936 230.12068015 84.20653678 230.06884559 81 229 C78.5151188 229.08805495 76.06648163 229.23520682 73.58984375 229.4296875 C64.44333932 230.05605973 55.33005926 230.15296062 46.16479492 230.13037109 C43.5128028 230.12489743 40.86097214 230.13041546 38.20898438 230.13671875 C36.51562463 230.13605972 34.82226498 230.13478221 33.12890625 230.1328125 C31.94476891 230.13584885 31.94476891 230.13584885 30.73670959 230.13894653 C25.23006133 230.11503066 25.23006133 230.11503066 23 229 C21.10066628 229.0893465 19.20418961 229.24524547 17.3125 229.4375 C13.84770812 229.76945611 10.47904306 230.05877383 7 229.9375 C3.93091629 230.00143924 2.62127528 230.55377916 0 232 C-1.32 232 -2.64 232 -4 232 C-7.26949794 225.05169716 -8.5787867 219.32296198 -8.4699707 211.67260742 C-8.4721611 210.69406799 -8.4743515 209.71552856 -8.47660828 208.70733643 C-8.47890042 205.50635798 -8.45277363 202.30632289 -8.42578125 199.10546875 C-8.42085196 196.86729728 -8.41755659 194.62912166 -8.41581726 192.39094543 C-8.40820209 187.71663088 -8.38771267 183.04262525 -8.35668945 178.3684082 C-8.31700173 172.37852082 -8.29905858 166.38883339 -8.28938007 160.39882946 C-8.2794093 154.67601558 -8.25953798 148.95325022 -8.23828125 143.23046875 C-8.2348855 142.1405834 -8.23148975 141.05069805 -8.2279911 139.92778587 C-8.21640854 136.84527183 -8.19788867 133.7628833 -8.17700195 130.68041992 C-8.17431305 129.76968216 -8.17162415 128.8589444 -8.16885376 127.92060852 C-8.13380865 123.7954466 -7.92048578 120.03986397 -7 116 C-7.32013501 114.66343632 -7.65411471 113.33013242 -8 112 C-7.83225079 109.10213244 -7.49225522 106.24605334 -7.15625 103.36328125 C-7.03286385 100.70739446 -7.13097572 98.61626727 -7.48193359 96.0222168 C-8.13262489 90.43782305 -8.14373532 84.89786299 -8.1328125 79.28125 C-8.13376923 78.1833313 -8.13472595 77.0854126 -8.13571167 75.95422363 C-8.13638882 73.6447748 -8.13456715 71.33532402 -8.13037109 69.02587891 C-8.1250163 65.51069829 -8.13033199 61.99564544 -8.13671875 58.48046875 C-8.13605789 56.22656222 -8.13477655 53.97265577 -8.1328125 51.71875 C-8.13483673 50.67787231 -8.13686096 49.63699463 -8.13894653 48.5645752 C-8.12218662 43.29371523 -7.91121947 38.17545709 -7.1713562 32.95349121 C-6.89889209 29.84735188 -7.41557461 27.05199925 -8 24 C-8.66 24 -9.32 24 -10 24 C-9.48887981 19.5021423 -8.66629137 15.10801974 -7.6875 10.6875 C-7.46449219 9.66011719 -7.24148438 8.63273438 -7.01171875 7.57421875 C-6 5 -6 5 -3.89453125 3.64453125 C-3.26933594 3.43183594 -2.64414062 3.21914062 -2 3 C-2 2.34 -2 1.68 -2 1 C-1.34 0.67 -0.68 0.34 0 0 Z M82 31 C79.72404771 31.08382378 77.44594837 31.11782254 75.16845703 31.11352539 C74.51409164 31.11367142 73.85972626 31.11381744 73.18553162 31.1139679 C71.04292374 31.11327647 68.90040501 31.10552052 66.7578125 31.09765625 C65.26423185 31.09578933 63.77065058 31.09436672 62.27706909 31.09336853 C58.36114793 31.08956494 54.44526432 31.07975324 50.52935791 31.06866455 C46.52738961 31.05840388 42.52541519 31.05386096 38.5234375 31.04882812 C30.6822745 31.0381289 22.84114193 31.0210786 15 31 C13.84545269 33.30909461 13.87898274 34.60046694 13.88647461 37.16856384 C13.8865451 38.04204971 13.8866156 38.91553558 13.88668823 39.81549072 C13.89185455 40.77606384 13.89702087 41.73663696 13.90234375 42.72631836 C13.90380402 43.73616287 13.90526428 44.74600739 13.9067688 45.78645325 C13.91058123 47.98435388 13.91670452 50.18225141 13.92483521 52.3801403 C13.93755563 55.85504138 13.94410339 59.32990447 13.94897461 62.80482483 C13.96237428 71.43661451 13.98657271 80.06836817 14.01037598 88.70013428 C14.03006978 95.98885962 14.04572671 103.27757162 14.05593872 110.5663166 C14.06244037 113.99589036 14.07494949 117.42540959 14.08764648 120.85496521 C14.09127814 122.95140535 14.09462998 125.04784601 14.09765625 127.14428711 C14.10282257 128.102836 14.10798889 129.06138489 14.11331177 130.04898071 C14.11338226 130.92528641 14.11345276 131.8015921 14.11352539 132.70445251 C14.115746 133.46602126 14.11796661 134.22759001 14.12025452 135.0122366 C14 137 14 137 13 140 C13.23512915 141.6123142 13.47430696 143.22418786 13.73828125 144.83203125 C14.32018677 149.65229342 14.77606607 155.21225172 13.46484375 159.92236328 C12.83026908 162.75861878 13.37003808 165.324692 13.73339844 168.17724609 C14.23897667 173.53026399 14.1472809 178.90384417 14.13037109 184.27661133 C14.12496502 186.32575725 14.13036937 188.37468845 14.13671875 190.42382812 C14.13542969 191.72384766 14.13414062 193.02386719 14.1328125 194.36328125 C14.13168457 195.54188721 14.13055664 196.72049316 14.12939453 197.93481445 C14.02159653 200.4884068 13.75244721 202.57416102 13 205 C13.66 205 14.32 205 15 205 C14.505 206.98 14.505 206.98 14 209 C20.06864061 209.75886267 25.97372718 210.14877003 32.0859375 210.1328125 C32.90953766 210.13376923 33.73313782 210.13472595 34.58169556 210.13571167 C36.30430173 210.13638652 38.02691056 210.13458125 39.74951172 210.13037109 C42.38905468 210.12497125 45.0284307 210.13036077 47.66796875 210.13671875 C49.34895871 210.13605865 51.02994856 210.13477891 52.7109375 210.1328125 C53.8921669 210.13584885 53.8921669 210.13584885 55.09725952 210.13894653 C58.32637223 210.12503197 60.91443742 210.02852086 64 209 C65.093125 209.165 66.18625 209.33 67.3125 209.5 C70.93409619 209.99106389 73.44303706 209.61860225 77 209 C78.01223633 209.22792236 78.01223633 209.22792236 79.04492188 209.46044922 C83.41056127 210.2575463 87.72755582 210.14232081 92.15625 210.1328125 C93.13613892 210.13376923 94.11602783 210.13472595 95.12561035 210.13571167 C97.19327865 210.13639088 99.2609491 210.13455469 101.32861328 210.13037109 C104.48865562 210.12501921 107.64855582 210.1303249 110.80859375 210.13671875 C112.82031281 210.13605792 114.83203179 210.13477666 116.84375 210.1328125 C117.78657837 210.13483673 118.72940674 210.13686096 119.70080566 210.13894653 C123.97063442 210.1237284 127.81574903 209.89555583 132 209 C134.06185178 208.99590598 136.12432555 209.05298332 138.18359375 209.15625 C139.35857422 209.20910156 140.53355469 209.26195312 141.74414062 209.31640625 C144.20248359 209.43860839 146.66081697 209.56100361 149.11914062 209.68359375 C150.29541016 209.73644531 151.47167969 209.78929687 152.68359375 209.84375 C154.28545532 209.92399414 154.28545532 209.92399414 155.91967773 210.00585938 C159.06587752 209.99987469 161.90876204 209.5548644 165 209 C166.49701343 208.91629738 167.99674395 208.86953626 169.49609375 208.8671875 C170.30240234 208.86589844 171.10871094 208.86460937 171.93945312 208.86328125 C173.17598633 208.86908203 173.17598633 208.86908203 174.4375 208.875 C175.25798828 208.87113281 176.07847656 208.86726562 176.92382812 208.86328125 C177.73142578 208.86457031 178.53902344 208.86585938 179.37109375 208.8671875 C180.09224365 208.86831543 180.81339355 208.86944336 181.55639648 208.87060547 C184 209 184 209 187.15200806 209.50772095 C191.14045115 210.01796811 195.00348422 210.08777165 199.01147461 210.00585938 C199.7799321 209.99464554 200.54838959 209.9834317 201.34013367 209.97187805 C202.99721477 209.94700674 204.65425976 209.91962543 206.31126213 209.88996887 C208.93935045 209.84308989 211.56746543 209.80317203 214.19569397 209.76501465 C220.72183929 209.668852 227.24777964 209.56090115 233.77374268 209.45318604 C239.29542578 209.36248297 244.81714392 209.27635414 250.33899117 209.19624329 C252.91806184 209.15696252 255.49695798 209.11102522 258.07591248 209.06481934 C259.6703137 209.04093024 261.26471966 209.01735439 262.85913086 208.99414062 C263.56743042 208.97962357 264.27572998 208.96510651 265.00549316 208.95014954 C269.78090246 208.8900355 274.28328408 209.34800091 279 210 C280.85416276 210.08249024 282.71041097 210.13042581 284.56640625 210.1328125 C285.54673828 210.13410156 286.52707031 210.13539063 287.53710938 210.13671875 C289.03467773 210.13091797 289.03467773 210.13091797 290.5625 210.125 C291.56474609 210.12886719 292.56699219 210.13273438 293.59960938 210.13671875 C297.7247193 210.1312874 301.64933911 210.05056552 305.73828125 209.4609375 C309.45600162 208.93555905 312.91126697 209.17750074 316.625 209.5 C324.53661491 210.05787028 332.33016382 209.90097314 340.25 209.5625 C352.17123272 209.06558224 364.06881766 208.88299599 376 208.875 C376.80360962 208.87259308 377.60721924 208.87018616 378.43518066 208.8677063 C387.06698144 208.84547991 395.58727212 209.0189049 404.19335938 209.77294922 C408.05156261 210.085069 411.8812388 210.14723426 415.75 210.125 C416.40742187 210.12886719 417.06484375 210.13273438 417.7421875 210.13671875 C422.03239286 210.12880324 426.29186955 209.92677848 430.57248402 209.63935661 C440.43708047 208.98931167 450.26149146 208.85281249 460.14453125 208.8671875 C461.8145906 208.86651147 463.48464985 208.86553897 465.15470886 208.86428833 C468.61429808 208.86283072 472.07386113 208.86490615 475.53344727 208.86962891 C479.96390976 208.87538369 484.39431242 208.8719991 488.82477283 208.86605644 C492.25539097 208.86244757 495.68599483 208.86358992 499.11661339 208.86618423 C500.75167536 208.8668496 502.38673864 208.86603876 504.02179909 208.86370468 C506.29427183 208.86116649 508.56664595 208.8650326 510.83911133 208.87060547 C512.77407219 208.87179886 512.77407219 208.87179886 514.74812317 208.87301636 C518 209 518 209 520.13505554 209.57058716 C522.64384682 210.14824897 524.47247286 209.51360912 527 209 C529.97502358 208.84488163 532.9482387 208.86337867 535.92675781 208.87060547 C536.8170166 208.86885315 537.70727539 208.86710083 538.62451172 208.86529541 C541.56740269 208.86089623 544.51023341 208.86381112 547.453125 208.8671875 C549.51275646 208.86651319 551.57238785 208.86554211 553.63201904 208.86428833 C557.95618444 208.86281338 562.28032919 208.86495679 566.60449219 208.86962891 C572.10120953 208.87528313 577.59787757 208.87207348 583.09459305 208.86605644 C587.35528928 208.8624085 591.61597423 208.86360939 595.87667084 208.86618423 C597.90011348 208.8668441 599.92355721 208.86605858 601.9469986 208.86370468 C612.77053944 208.85388895 623.51543618 209.01951904 634.31323242 209.80117798 C640.47595509 210.13352466 646.58893685 209.81890966 652.75 209.5 C655.16119243 209.37995122 657.5726533 209.26514933 659.984375 209.15625 C661.02303711 209.10275391 662.06169922 209.04925781 663.13183594 208.99414062 C666 209 666 209 668.62597656 209.55273438 C671.24159542 210.04551654 672.46216181 209.67602435 675 209 C677.42697268 208.90608925 679.85636824 208.86929386 682.28515625 208.8671875 C682.98265488 208.86623077 683.6801535 208.86527405 684.39878845 208.86428833 C685.86880585 208.86360964 687.3388263 208.86544222 688.80883789 208.86962891 C691.05817382 208.87498969 693.30731081 208.8696693 695.55664062 208.86328125 C696.98697961 208.86394193 698.41731846 208.86522288 699.84765625 208.8671875 C701.14711182 208.86831543 702.44656738 208.86944336 703.78540039 208.87060547 C707 209 707 209 710 210 C710.99 209.67 711.98 209.34 713 209 C713.71473984 209.14682724 714.42947968 209.29365448 715.1658783 209.44493103 C718.91586342 210.17937387 722.54923984 210.01123381 726.34594727 209.88110352 C728.11123147 209.83214565 729.87652654 209.7835786 731.64183044 209.7353363 C732.58998564 209.70766111 733.53814083 209.67998592 734.515028 209.65147209 C755.8317007 209.04478271 777.14149729 208.89608192 798.46484375 208.90234375 C799.18515038 208.90247483 799.90545701 208.90260591 800.64759111 208.90274096 C809.49030271 208.90466846 818.33299432 208.91445905 827.17569506 208.92797434 C834.8161993 208.93943005 842.45670476 208.94471857 850.09721553 208.94967639 C865.73148702 208.95994989 881.36574118 208.97737478 897 209 C896.98839844 207.87722656 896.97679687 206.75445312 896.96484375 205.59765625 C896.9554542 204.08593918 896.94635527 202.57422029 896.9375 201.0625 C896.92912109 200.32708984 896.92074219 199.59167969 896.91210938 198.83398438 C896.89590705 195.12365303 897.01463652 191.53093485 897.49581909 187.85032654 C898.283837 181.36564611 898.13958264 174.85444494 898.12939453 168.33227539 C898.13075172 166.86623084 898.13253343 165.40018664 898.13470459 163.93414307 C898.13923834 159.97804774 898.1375069 156.02197867 898.1343255 152.06588292 C898.13178422 147.92017756 898.13414405 143.77447437 898.13571167 139.62876892 C898.13752678 132.67625527 898.13514285 125.72375227 898.13037109 118.77124023 C898.12491474 110.72824444 898.1267037 102.68527393 898.1321975 94.64227873 C898.13672953 87.73086838 898.13737919 80.81946565 898.13475883 73.90805429 C898.13319848 69.78222039 898.132996 65.6563984 898.13629532 61.53056526 C898.13917583 57.65882805 898.13719503 53.78712367 898.13140106 49.91539001 C898.13007508 48.49233492 898.13046485 47.06927708 898.13266373 45.64622307 C898.13538113 43.70967073 898.13137523 41.77311238 898.12698364 39.83656311 C898.12660662 38.75131883 898.12622959 37.66607454 898.12584114 36.54794407 C898.17176013 34.00806376 898.17176013 34.00806376 897 32 C895.84016098 32.00333092 895.84016098 32.00333092 894.65689087 32.00672913 C884.64626854 32.03407556 874.63565221 32.05113508 864.625 32.0625 C863.81624672 32.0635033 863.00749344 32.06450661 862.17423248 32.06554031 C836.74316198 32.09507133 811.33307017 31.89167102 785.90869141 31.26782227 C784.79137634 31.24305817 783.67406128 31.21829407 782.52288818 31.19277954 C780.51398552 31.148031 778.50518911 31.09776411 776.49664307 31.03915405 C771.00720302 30.92053192 765.56888396 31.05719683 760.08959448 31.36362517 C745.95277305 32.13162511 731.85069193 32.04672213 717.69835764 31.90358287 C714.04883187 31.86830602 710.39924717 31.84076294 706.74966049 31.81263351 C701.17067191 31.76912059 695.59170268 31.72390332 690.01274726 31.67632255 C671.1118617 31.51525673 652.21075557 31.3867825 633.30957031 31.26660156 C631.85762745 31.25732209 631.85762745 31.25732209 630.3763524 31.24785516 C578.13405392 30.91590452 525.89164061 30.87822532 473.6484375 30.8671875 C472.46655952 30.86692633 471.28468153 30.86666516 470.06698906 30.86639607 C441.10154266 30.86021854 412.13610075 30.86331869 383.17065492 30.87054029 C364.49365068 30.87509339 345.8166526 30.87415833 327.13964844 30.86962891 C305.05734425 30.86427566 282.97504368 30.86216398 260.89273894 30.86524117 C258.5462358 30.86555956 256.19973266 30.86587394 253.85322952 30.86618423 C252.12405312 30.86641565 252.12405312 30.86641565 250.35994386 30.86665174 C242.31501838 30.86750817 234.27009525 30.86607491 226.22517014 30.86370468 C216.50912266 30.86090206 206.79308327 30.86165848 197.07703672 30.86698543 C192.14455587 30.86960251 187.21208851 30.87066015 182.27960777 30.86733627 C177.7628039 30.86433766 173.24602595 30.86602453 168.7292244 30.87131383 C167.10592084 30.87242175 165.48261504 30.87188339 163.85931294 30.86943804 C153.85957381 30.85553584 143.97068343 31.20138247 134 32 C133.505 31.01 133.505 31.01 133 30 C132.3498291 30.16226074 131.6996582 30.32452148 131.02978516 30.49169922 C127.18586263 31.13658614 123.40824757 31.14297091 119.5234375 31.1328125 C118.7163736 31.13376923 117.90930969 31.13472595 117.07778931 31.13571167 C115.37835614 31.13638999 113.67892033 31.13456005 111.97949219 31.13037109 C109.37689422 31.12500391 106.77446773 31.13033503 104.171875 31.13671875 C102.51822879 31.13605818 100.86458268 31.13477746 99.2109375 31.1328125 C98.43277679 31.13483673 97.65461609 31.13686096 96.85287476 31.13894653 C91.46393058 31.11549712 87.34995295 30.0593193 82 31 Z " fill="#FFFFFF" transform="translate(676,231)"/>
<path d="M0 0 C0.99 0.33 1.98 0.66 3 1 C5.12327356 1.09523918 7.24959711 1.12986362 9.375 1.125 C10.49648438 1.12757813 11.61796875 1.13015625 12.7734375 1.1328125 C15.65074729 1.01437602 18.20099855 0.63502651 21 0 C25.44945473 -0.45635433 28.13073193 0.84040852 32 3 C32 3.66 32 4.32 32 5 C32.99 5.33 33.98 5.66 35 6 C35.02505615 7.21582764 35.0501123 8.43165527 35.07592773 9.68432617 C35.17024189 14.20379817 35.27040369 18.72312508 35.37231445 23.24243164 C35.41557258 25.19682415 35.45725398 27.15125222 35.49731445 29.10571289 C35.55523836 31.91824045 35.61886873 34.73059048 35.68359375 37.54296875 C35.70030624 38.41398727 35.71701874 39.2850058 35.73423767 40.18241882 C35.83327284 44.25636194 36.10922069 48.00983401 37 52 C37 54.0586201 36.99670831 56.11735101 36.96875 58.17578125 C37.03458391 64.12552044 37.56232707 70.06796869 38 76 C38.97324219 75.66355469 39.94648437 75.32710938 40.94921875 74.98046875 C45.32554754 73.73182092 49.31611451 73.94982537 53.8125 74.3125 C54.9562207 74.38500977 54.9562207 74.38500977 56.12304688 74.45898438 C61.69658916 74.84829458 61.69658916 74.84829458 64 76 C64 52.9 64 29.8 64 6 C64.66 6 65.32 6 66 6 C66.33 4.68 66.66 3.36 67 2 C69.76276177 2.52268466 72.3260876 3.10869587 75 4 C77.11770435 3.56085803 79.22073824 3.04959086 81.3125 2.5 C88.58690376 0.84982308 95.66400393 0.36287093 103 2 C105.55028514 5.82542771 105.22682988 8.85049304 105.13525391 13.2746582 C105.12579239 14.12113922 105.11633087 14.96762024 105.10658264 15.8397522 C105.07273771 18.66030634 105.02453757 21.48043489 104.9765625 24.30078125 C104.95032734 26.29053022 104.92506607 28.28029225 104.90072632 30.27006531 C104.83387042 35.54762496 104.75525326 40.82494331 104.67376709 46.10229492 C104.54776897 54.39640909 104.44010338 62.69079099 104.33043671 70.98513412 C104.28907271 74.05002453 104.24501494 77.11486837 104.20074463 80.17971802 C104.06657676 89.82059891 103.97938505 99.45729156 104.03027344 109.09912109 C104.03416517 109.97254622 104.03805691 110.84597136 104.04206657 111.74586391 C104.06162405 115.80137519 104.09233153 119.85622412 104.14395142 123.91145325 C104.22665142 133.12254105 103.94065788 142.17802637 101 151 C98.69 151.33 96.38 151.66 94 152 C94 152.99 94 153.98 94 155 C93.195625 155.12375 92.39125 155.2475 91.5625 155.375 C90.716875 155.58125 89.87125 155.7875 89 156 C88.67 156.66 88.34 157.32 88 158 C82.32126029 159.15362094 76.8765451 159.57250529 71.3125 157.875 C67.51435719 153.15298461 67.50379809 147.90163478 67 142 C66.83564453 140.56527344 66.83564453 140.56527344 66.66796875 139.1015625 C65.5303774 127.78632058 65.90974679 116.35663108 66 105 C65.07445312 105.34933594 64.14890625 105.69867188 63.1953125 106.05859375 C59.3024134 107.20552368 57.72370046 106.37615017 54 105 C51.7124024 105.27640014 51.7124024 105.27640014 50 106 C50 105.34 50 104.68 50 104 C49.01 104.33 48.02 104.66 47 105 C44.73828125 104.87890625 44.73828125 104.87890625 42.3125 104.5625 C41.50425781 104.46066406 40.69601562 104.35882813 39.86328125 104.25390625 C38.94095703 104.12822266 38.94095703 104.12822266 38 104 C38.03552979 105.26183105 38.07105957 106.52366211 38.10766602 107.82373047 C38.23778439 112.49384425 38.36103258 117.1641182 38.48217773 121.83447266 C38.53563266 123.85796079 38.59096466 125.88140023 38.64819336 127.90478516 C38.73000696 130.80881243 38.80512562 133.71294644 38.87890625 136.6171875 C38.90594131 137.52556366 38.93297638 138.43393982 38.96083069 139.36984253 C38.98092697 140.21056305 39.00102325 141.05128357 39.02172852 141.91748047 C39.04171402 142.65916473 39.06169952 143.400849 39.08229065 144.16500854 C39 146 39 146 38 148 C38.66 148 39.32 148 40 148 C40 149.98 40 151.96 40 154 C38.35 154.33 36.7 154.66 35 155 C34.67 155.99 34.34 156.98 34 158 C33.34 158 32.68 158 32 158 C32 158.66 32 159.32 32 160 C31.01 160 30.02 160 29 160 C29 159.34 29 158.68 29 158 C27.783125 158.165 26.56625 158.33 25.3125 158.5 C20.10041763 159.10586308 14.96088939 158.99300846 9.72265625 158.83984375 C6.85083172 158.70625905 6.85083172 158.70625905 5 161 C1.26703674 161.38286803 0.22373677 161.14915785 -3 159 C-5.57745028 152.81912408 -5.0710857 146.8988351 -4.6875 140.3125 C-4.63408447 139.23685791 -4.58066895 138.16121582 -4.52563477 137.05297852 C-4.25612594 131.83812119 -3.92186563 126.63730747 -3.4375 121.4375 C-2.00510928 105.91515421 -3.18060247 89.99473206 -3.5 74.4375 C-3.57183386 70.89088406 -3.64323526 67.34426033 -3.71398926 63.79762268 C-3.75780576 61.60615149 -3.80228731 59.41469347 -3.84753418 57.22325134 C-3.92670745 53.29949512 -4.00189523 49.38196844 -3.98242188 45.45727539 C-3.93006868 42.93711462 -3.93006868 42.93711462 -4.5 40.25 C-5.50543122 33.7146971 -5.1359362 27.49106402 -4 21 C-4.33 20.34 -4.66 19.68 -5 19 C-5.07033769 17.12620395 -5.0843022 15.24998898 -5.0625 13.375 C-5.05347656 12.37210937 -5.04445313 11.36921875 -5.03515625 10.3359375 C-5.02355469 9.56507813 -5.01195312 8.79421875 -5 8 C-4.34 8 -3.68 8 -3 8 C-3.061875 7.05125 -3.12375 6.1025 -3.1875 5.125 C-3.125625 4.09375 -3.06375 3.0625 -3 2 C-2.01 1.34 -1.02 0.68 0 0 Z " fill="#FFFFFF" transform="translate(872,266)"/>
<path d="M0 0 C3.91660106 -0.05906707 7.83308457 -0.09394858 11.75 -0.125 C13.38775391 -0.15013672 13.38775391 -0.15013672 15.05859375 -0.17578125 C23.26106143 -0.22431656 31.18880079 0.44751614 39.13842773 2.57128906 C42.0655941 3.24540108 44.83193533 2.86396185 47.8125 2.625 C49.06160156 2.52574219 50.31070312 2.42648437 51.59765625 2.32421875 C53.98918907 2.09632297 56.37421225 1.79386816 58.75 1.4375 C65.40620356 0.5414726 70.75715971 0.5009489 77 3 C79.82865121 3.34862928 82.63155113 3.50035897 85.4765625 3.65625 C88 4 88 4 91 6 C92.409671 12.72726328 92.02030544 19.47704867 91.75 26.3125 C91.70939453 27.90868164 91.70939453 27.90868164 91.66796875 29.53710938 C91.39597715 36.72733883 90.20074331 43.15125269 88 50 C88.66 50 89.32 50 90 50 C89.5625 52.875 89.5625 52.875 88 56 C82.94990563 58.3048098 78.33811228 58.04441327 73 57 C70.66298962 57.30649316 68.32854865 57.63473747 66 58 C65.67 57.67 65.34 57.34 65 57 C63.6171891 56.97127692 62.23274562 57.01297042 60.8515625 57.0859375 C60.01109375 57.12976563 59.170625 57.17359375 58.3046875 57.21875 C57.42039062 57.2703125 56.53609375 57.321875 55.625 57.375 C54.31015625 57.44074219 54.31015625 57.44074219 52.96875 57.5078125 C47.90544136 57.78353797 47.90544136 57.78353797 43 59 C43.93972656 59.09087891 43.93972656 59.09087891 44.8984375 59.18359375 C45.71570312 59.26738281 46.53296875 59.35117187 47.375 59.4375 C48.18710938 59.51871094 48.99921875 59.59992188 49.8359375 59.68359375 C52 60 52 60 54 61 C56.3329866 61.04022391 58.66706666 61.04320247 61 61 C63.49850628 66.81034653 64.40973688 71.23815423 64.14453125 77.5234375 C64.12283371 78.30965485 64.10113617 79.09587219 64.07878113 79.90591431 C64.02982514 81.55828913 63.97310248 83.21045063 63.90893555 84.86230469 C63.81303298 87.36111284 63.74337539 89.85960777 63.67773438 92.359375 C63.45576584 99.68771913 63.1421092 106.75155372 61.45678711 113.91552734 C60.71293983 117.30995177 60.5641977 120.6563755 60.375 124.125 C60.30023437 125.42695313 60.22546875 126.72890625 60.1484375 128.0703125 C60.07496094 129.52050781 60.07496094 129.52050781 60 131 C59.34 131 58.68 131 58 131 C58.33 131.66 58.66 132.32 59 133 C59.83584077 143.98255891 59.83584077 143.98255891 57 148 C53.63096849 150.36210749 50.54615407 152.11043958 46.375 151.8125 C45.59125 151.544375 44.8075 151.27625 44 151 C42.00102872 150.66055205 40.00124361 150.32578384 38 150 C37.67 150.66 37.34 151.32 37 152 C36.401875 151.814375 35.80375 151.62875 35.1875 151.4375 C32.83591238 150.77906313 32.83591238 150.77906313 30 152 C27.1171875 151.51171875 27.1171875 151.51171875 23.875 150.6875 C22.79992188 150.42324219 21.72484375 150.15898437 20.6171875 149.88671875 C18 149 18 149 17 147 C16.21625 147.061875 15.4325 147.12375 14.625 147.1875 C13.75875 147.125625 12.8925 147.06375 12 147 C9.61526156 143.42289233 9.64869297 141.50980707 9.4375 137.25 C9.36494626 135.89841797 9.29201873 134.54685596 9.21875 133.1953125 C9.18394531 132.50211914 9.14914062 131.80892578 9.11328125 131.09472656 C9.00316109 129.05845287 8.86695608 127.0260156 8.71875 124.9921875 C8.32597823 119.59157561 7.93794108 114.22935692 8 108.8125 C8.16795088 105.30554488 8.16795088 105.30554488 7.51269531 103.22192383 C6.30325596 97.98044404 6.77358265 92.35097987 6.75976562 86.98364258 C6.75007663 84.70551812 6.71903843 82.428303 6.6875 80.15039062 C6.68096725 78.68750531 6.67571785 77.2246136 6.671875 75.76171875 C6.6595282 75.08856125 6.6471814 74.41540375 6.63446045 73.72184753 C6.65759953 68.73145423 7.84322531 65.39505127 10 61 C8.89140625 60.96261719 7.7828125 60.92523438 6.640625 60.88671875 C5.17705026 60.82104552 3.71351009 60.75459865 2.25 60.6875 C1.15558594 60.65366211 1.15558594 60.65366211 0.0390625 60.61914062 C-4.28816133 60.40277943 -6.78007637 59.91615725 -10 57 C-12.64934822 56.28566879 -12.64934822 56.28566879 -15 56 C-15.04898437 55.37351562 -15.09796875 54.74703125 -15.1484375 54.1015625 C-15.22320313 53.28429687 -15.29796875 52.46703125 -15.375 51.625 C-15.47941406 50.40683594 -15.47941406 50.40683594 -15.5859375 49.1640625 C-15.82892588 46.79665809 -15.82892588 46.79665809 -18 45 C-18.41064453 42.5925293 -18.41064453 42.5925293 -18.6328125 39.57421875 C-18.71660156 38.46626953 -18.80039063 37.35832031 -18.88671875 36.21679688 C-18.96535156 35.05212891 -19.04398438 33.88746094 -19.125 32.6875 C-19.21136719 31.56537109 -19.29773437 30.44324219 -19.38671875 29.28710938 C-20.93650433 7.87300866 -20.93650433 7.87300866 -19 4 C-16.015625 3.62109375 -16.015625 3.62109375 -12.25 3.4375 C-8.06291555 3.22289002 -4.08961689 2.9443581 0 2 C0 1.34 0 0.68 0 0 Z M23.3125 57.9375 C22.61060547 58.03740234 21.90871094 58.13730469 21.18554688 58.24023438 C19.45613473 58.48729325 17.7279373 58.74282852 16 59 C16 59.33 16 59.66 16 60 C18.24973447 60.054138 20.49984383 60.09285491 22.75 60.125 C24.62945313 60.15980469 24.62945313 60.15980469 26.546875 60.1953125 C29.72820492 60.01537302 31.36521896 59.68998582 34 58 C30.22044143 56.74014714 27.15576548 57.35975421 23.3125 57.9375 Z M35 58 C35.33 58.66 35.66 59.32 36 60 C36.66 59.34 37.32 58.68 38 58 C37.01 58 36.02 58 35 58 Z " fill="#FFFFFF" transform="translate(1178,268)"/>
<path d="M0 0 C1.55048253 8.61340786 2.27163386 16.85179858 2.15112305 25.59570312 C2.14326782 26.77950562 2.1354126 27.96330811 2.12731934 29.1829834 C2.09901738 33.04923453 2.05569669 36.91514804 2.01171875 40.78125 C1.98697579 43.48594697 1.96512392 46.1906657 1.94306946 48.89538574 C1.89538899 54.54036868 1.83967459 60.18522539 1.77856445 65.83007812 C1.70806515 72.34727865 1.64832173 78.86450701 1.59470528 85.38186693 C1.53732439 92.3474811 1.47263828 99.31301295 1.40554833 106.27853966 C1.38675605 108.27728281 1.36940484 110.27603933 1.3520565 112.27479553 C1.31858864 115.99641726 1.27877549 119.71791588 1.23706055 123.43945312 C1.22816299 124.54184326 1.21926544 125.6442334 1.21009827 126.7800293 C1.19741913 127.79464233 1.18473999 128.80925537 1.17167664 129.85461426 C1.15810135 131.17187878 1.15810135 131.17187878 1.14425182 132.5157547 C0.92957057 136.21290651 0.16935902 139.49192295 -1 143 C-1.969375 143.12375 -2.93875 143.2475 -3.9375 143.375 C-4.948125 143.58125 -5.95875 143.7875 -7 144 C-7.33 144.66 -7.66 145.32 -8 146 C-8.99 145.67 -9.98 145.34 -11 145 C-11 144.34 -11 143.68 -11 143 C-11.66 143 -12.32 143 -13 143 C-13 142.34 -13 141.68 -13 141 C-14.98567708 141.03255208 -16.97135417 141.06510417 -18.95703125 141.09765625 C-21 141 -21 141 -24 140 C-24 139.34 -24 138.68 -24 138 C-24.99 138 -25.98 138 -27 138 C-27 137.34 -27 136.68 -27 136 C-27.7425 135.855625 -28.485 135.71125 -29.25 135.5625 C-31.52027739 135.09812508 -33.75759479 134.58136431 -36 134 C-36 133.34 -36 132.68 -36 132 C-36.556875 131.938125 -37.11375 131.87625 -37.6875 131.8125 C-40.98942866 130.6523629 -42.62907991 128.54440205 -45 126 C-46.3921875 124.6696875 -46.3921875 124.6696875 -47.8125 123.3125 C-50 121 -50 121 -50 119 C-50.61875 118.9175 -51.2375 118.835 -51.875 118.75 C-54 118 -54 118 -55.125 116 C-55.41375 115.34 -55.7025 114.68 -56 114 C-56.66 113.67 -57.32 113.34 -58 113 C-58.75978264 111.28223054 -59.51388218 109.56133603 -60.21875 107.8203125 C-61.01153275 105.85725371 -61.01153275 105.85725371 -62.4375 103.625 C-62.953125 102.75875 -63.46875 101.8925 -64 101 C-64.33257813 100.45859375 -64.66515625 99.9171875 -65.0078125 99.359375 C-72.3136815 85.61351777 -70.67354984 66.78575483 -68 52 C-67.1640625 49.39453125 -67.1640625 49.39453125 -66 47 C-65.72091797 46.4131543 -65.44183594 45.82630859 -65.15429688 45.22167969 C-64.16441533 43.15825044 -63.14771718 41.10983532 -62.125 39.0625 C-61.78597656 38.37220703 -61.44695312 37.68191406 -61.09765625 36.97070312 C-58.99859906 32.76061694 -56.82218672 28.77275589 -54 25 C-53.34 25 -52.68 25 -52 25 C-52 24.34 -52 23.68 -52 23 C-51.34 22.67 -50.68 22.34 -50 22 C-49.67 21.01 -49.34 20.02 -49 19 C-48.01 18.67 -47.02 18.34 -46 18 C-45.34 17.01 -44.68 16.02 -44 15 C-43.01 15 -42.02 15 -41 15 C-41 14.34 -41 13.68 -41 13 C-38.8046875 11.37890625 -38.8046875 11.37890625 -35.875 9.5625 C-34.92367188 8.96566406 -33.97234375 8.36882812 -32.9921875 7.75390625 C-22.79177701 1.77481446 -11.80861005 -0.62150579 0 0 Z " fill="#FEFEFE" transform="translate(1355,271)"/>
<path d="M0 0 C0.5321441 2.08047297 1.05031786 4.16452293 1.5625 6.25 C1.85253906 7.41015625 2.14257812 8.5703125 2.44140625 9.765625 C2.99274885 12.95801431 2.77453813 14.00958307 2 17 C1.90210393 18.6276267 1.8541213 20.25862349 1.84178162 21.8891449 C1.8319928 22.87187378 1.82220398 23.85460266 1.81211853 24.86711121 C1.80636307 25.93891129 1.8006076 27.01071136 1.79467773 28.11499023 C1.78477814 29.24871063 1.77487854 30.38243103 1.76467896 31.55050659 C1.73306024 35.303181 1.7082982 39.05586797 1.68359375 42.80859375 C1.66301786 45.4140709 1.64202121 48.01954475 1.62062073 50.62501526 C1.57072383 56.78836162 1.52578447 62.95173386 1.48259836 69.11513048 C1.43331725 76.11205367 1.37831701 83.10892828 1.32291877 90.10580528 C1.23692802 100.98904813 1.15401793 111.87231262 1.07592773 122.75561523 C1.06814804 123.82539108 1.06036835 124.89516693 1.05235291 125.99736023 C1.04538391 126.98290894 1.03841492 127.96845764 1.03123474 128.98387146 C1.02515922 129.83686545 1.01908369 130.68985945 1.01282406 131.56870174 C0.99975817 134.04584891 0.9977883 136.52282321 1 139 C0.01 139.33 -0.98 139.66 -2 140 C-2 140.99 -2 141.98 -2 143 C-2.639375 143.12375 -3.27875 143.2475 -3.9375 143.375 C-4.618125 143.58125 -5.29875 143.7875 -6 144 C-6.33 144.66 -6.66 145.32 -7 146 C-9.46800047 144.84826645 -11.04783565 143.95216435 -13 142 C-15.42715206 141.32059533 -15.42715206 141.32059533 -18.125 140.875 C-19.49011719 140.62363281 -19.49011719 140.62363281 -20.8828125 140.3671875 C-21.58148437 140.24601563 -22.28015625 140.12484375 -23 140 C-23 139.34 -23 138.68 -23 138 C-24.32 138 -25.64 138 -27 138 C-27 137.34 -27 136.68 -27 136 C-27.763125 135.855625 -28.52625 135.71125 -29.3125 135.5625 C-32 135 -32 135 -35 134 C-35 133.34 -35 132.68 -35 132 C-35.8971875 131.8453125 -35.8971875 131.8453125 -36.8125 131.6875 C-39.37670761 130.88160618 -40.15023742 129.9209073 -42 128 C-43.5159375 127.0409375 -43.5159375 127.0409375 -45.0625 126.0625 C-48.05595699 123.96071105 -48.56365962 123.15994883 -50 120 C-52.54716565 117.25689854 -54.88140016 115.07906656 -58 113 C-58.78563778 111.31006039 -59.56311075 109.61426364 -60.25 107.88183594 C-60.93005094 106.17551021 -61.7099572 104.50982941 -62.5 102.8515625 C-68.62140341 89.6841687 -71.2839723 76.47110577 -69 62 C-68.835 60.88238281 -68.67 59.76476562 -68.5 58.61328125 C-66.43039874 47.06231924 -61.64320116 33.3756098 -53 25 C-52.34 25 -51.68 25 -51 25 C-51 24.34 -51 23.68 -51 23 C-50.34 22.67 -49.68 22.34 -49 22 C-48.67 21.01 -48.34 20.02 -48 19 C-47.34 19 -46.68 19 -46 19 C-45.690625 18.1028125 -45.690625 18.1028125 -45.375 17.1875 C-43.47304173 14.1616573 -41.24699596 13.35291498 -38 12 C-37.34 12 -36.68 12 -36 12 C-36 11.34 -36 10.68 -36 10 C-24.91554608 3.37029115 -13.05806471 -0.58035843 0 0 Z " fill="#FFFFFF" transform="translate(1068,271)"/>
<path d="M0 0 C1.216875 0.495 2.43375 0.99 3.6875 1.5 C6.32290674 2.50573826 7.95786942 3 10.8125 3 C13 3 13 3 14.59765625 4.171875 C16.44387288 6.57864208 16.46525764 8.24011767 16.625 11.25 C16.82223465 14.39342729 17.06050389 17.33277142 17.625 20.4375 C17.96151437 23.6343865 17.86745622 26.22365834 17.5625 29.40234375 C15.70258938 50.48713968 15.93962799 71.61122485 16.375 92.75 C16.40699493 94.34137787 16.40699493 94.34137787 16.43963623 95.96490479 C16.65875728 106.48739444 16.94457538 117.00383056 17.4765625 127.515625 C17.53183609 128.63454132 17.53183609 128.63454132 17.58822632 129.77606201 C17.70217126 131.85314943 17.84314444 133.92573859 18 136 C18.0495282 136.7369812 18.0990564 137.4739624 18.15008545 138.23327637 C18.33457265 140.65423603 18.33457265 140.65423603 19 144 C19.99 144.66 20.98 145.32 22 146 C21.63500693 153.42152578 21.63500693 153.42152578 19.11328125 155.71875 C14.57250961 157.58747409 10.24401888 157.57281921 5.375 157.6875 C4.44042969 157.72166016 3.50585938 157.75582031 2.54296875 157.79101562 C-3.9714889 158.01115937 -10.48242246 158.03568885 -17 158 C-17.66 156.68 -18.32 155.36 -19 154 C-19.66 154 -20.32 154 -21 154 C-21 154.66 -21 155.32 -21 156 C-22.98 156.33 -24.96 156.66 -27 157 C-28.67462169 151.20121194 -29.22765343 146.19908491 -29.0625 140.1875 C-28.72958843 129.1092135 -28.72958843 129.1092135 -30.50219727 118.2434082 C-31.12180826 115.45105637 -31.20024309 112.8009934 -31.28125 109.94140625 C-31.31863281 108.74966797 -31.35601563 107.55792969 -31.39453125 106.33007812 C-31.42933594 105.08677734 -31.46414063 103.84347656 -31.5 102.5625 C-31.80272252 92.05130143 -32.13311731 81.55335286 -33.51342773 71.11865234 C-34.02764613 67.08891474 -34.21742175 63.07076863 -34.31640625 59.01171875 C-34.3373233 58.27457138 -34.35824036 57.53742401 -34.37979126 56.77793884 C-34.44528237 54.41455505 -34.50453355 52.05107955 -34.5625 49.6875 C-34.58301422 48.88374939 -34.60352844 48.07999878 -34.62466431 47.25189209 C-34.76232625 41.8348438 -34.88541182 36.41758134 -35 31 C-35.02481445 29.86546387 -35.04962891 28.73092773 -35.07519531 27.56201172 C-35.12703015 24.91623868 -35.1631229 22.27114773 -35.1875 19.625 C-35.20047119 18.90916748 -35.21344238 18.19333496 -35.22680664 17.45581055 C-35.2358199 12.5844418 -34.51396146 8.31078329 -31.8125 4.1875 C-29.01028138 2.35156366 -26.29094928 2.23934177 -23 2 C-22.34 2.33 -21.68 2.66 -21 3 C-20.67 2.34 -20.34 1.68 -20 1 C-17.98177083 1.26041667 -15.96354167 1.52083333 -13.9453125 1.78125 C-11.76474965 2.02645385 -9.69515299 1.99237882 -7.5 1.9375 C-5 2 -5 2 -3 3 C-2.01 2.01 -1.02 1.02 0 0 Z " fill="#FFFFFF" transform="translate(760,267)"/>
<path d="M0 0 C7.38091906 -0.47618833 12.32165527 0.97041977 19 4 C20.66376648 4.6738719 22.32968226 5.34253451 24 6 C24 6.66 24 7.32 24 8 C24.825 8.2475 25.65 8.495 26.5 8.75 C30.46319728 10.1654276 34.4885509 11.64506636 38 14 C38.495 15.485 38.495 15.485 39 17 C39.99 17.66 40.98 18.32 42 19 C42 19.66 42 20.32 42 21 C42.99 21.33 43.98 21.66 45 22 C45 22.66 45 23.32 45 24 C45.66 24 46.32 24 47 24 C47.0825 24.61875 47.165 25.2375 47.25 25.875 C47.78131326 28.17469437 47.78131326 28.17469437 49.9375 28.9375 C52 30 52 30 53.125 32.1875 C54.13828942 35.44450171 55.09704742 38.71067273 56 42 C56.66 42 57.32 42 58 42 C60.91502489 51.64200541 63.32647275 60.8793449 63 71 C63.33 71.99 63.66 72.98 64 74 C63.70048999 76.9635727 62.968331 79.84660581 62.3125 82.75 C62.15072266 83.53632813 61.98894531 84.32265625 61.82226562 85.1328125 C60.64853269 90.42560071 58.86763698 94.40360427 56 99 C55.31867549 100.66072849 54.65257873 102.327767 54 104 C51.63213008 109.33604488 49.03505809 113.75257043 45 118 C44.34 118 43.68 118 43 118 C42.505 119.485 42.505 119.485 42 121 C41.34 121 40.68 121 40 121 C39.773125 121.61875 39.54625 122.2375 39.3125 122.875 C37.62070165 125.61410209 36.00755839 126.05024472 33 127 C33 127.66 33 128.32 33 129 C31.75539217 129.67667998 30.50403104 130.34094719 29.25 131 C28.55390625 131.37125 27.8578125 131.7425 27.140625 132.125 C25 133 25 133 21 133 C21 133.66 21 134.32 21 135 C6.52631579 142.63157895 6.52631579 142.63157895 1 141.25 C-3.69668203 135.96623272 -2.1426466 125.27497055 -2.12939453 118.48852539 C-2.13114685 117.37185989 -2.13289917 116.2551944 -2.13470459 115.10469055 C-2.13908396 111.43566302 -2.13619872 107.76668422 -2.1328125 104.09765625 C-2.13348671 101.53372692 -2.13445772 98.96979765 -2.13571167 96.40586853 C-2.13718338 91.04051036 -2.1351476 85.67517027 -2.13037109 80.30981445 C-2.12493274 74.13013732 -2.12669114 67.9504932 -2.1321975 61.77081686 C-2.13730434 55.79768616 -2.13673565 49.82457145 -2.13381577 43.85143852 C-2.13315096 41.32260572 -2.13395926 38.79377207 -2.13629532 36.26494026 C-2.13884889 32.72356087 -2.1349431 29.18224391 -2.12939453 25.64086914 C-2.13141876 24.60627563 -2.13344299 23.57168213 -2.13552856 22.5057373 C-2.11369496 14.94261688 -1.98878857 7.33952135 0 0 Z M33 106 C33.33 106.66 33.66 107.32 34 108 C34.33 107.34 34.66 106.68 35 106 C34.34 106 33.68 106 33 106 Z " fill="#FFFFFF" transform="translate(1080,272)"/>
<path d="M0 0 C0.76441406 -0.00515625 1.52882813 -0.0103125 2.31640625 -0.015625 C4.4375 0.25 4.4375 0.25 7.4375 2.25 C7.625 5.375 7.625 5.375 7.4375 8.25 C8.4275 8.58 9.4175 8.91 10.4375 9.25 C10.9325 11.725 10.9325 11.725 11.4375 14.25 C12.0975 14.25 12.7575 14.25 13.4375 14.25 C15.15005955 19.52691114 15.82802604 24.34532234 16.0625 29.875 C16.10117188 30.61234375 16.13984375 31.3496875 16.1796875 32.109375 C16.59335437 40.35316486 16.18613929 46.54513971 13.1796875 54.21875 C12.32329928 56.44301 12.32329928 56.44301 11.625 59.625 C10.00071997 64.5833285 7.54586749 69.05201456 4.4375 73.25 C3.7775 73.25 3.1175 73.25 2.4375 73.25 C2.4375 74.57 2.4375 75.89 2.4375 77.25 C0.0625 80 0.0625 80 -2.5625 82.25 C-3.2225 82.25 -3.8825 82.25 -4.5625 82.25 C-4.5625 82.91 -4.5625 83.57 -4.5625 84.25 C-5.5525 84.25 -6.5425 84.25 -7.5625 84.25 C-7.5625 84.91 -7.5625 85.57 -7.5625 86.25 C-9.0475 86.745 -9.0475 86.745 -10.5625 87.25 C-11.0575 88.735 -11.0575 88.735 -11.5625 90.25 C-18.81125012 94.16313022 -26.47090088 96.79085917 -34.5625 98.25 C-35.5525 98.58 -36.5425 98.91 -37.5625 99.25 C-41.91294089 99.48444546 -46.26891382 99.43517179 -50.625 99.4375 C-51.83478516 99.44974609 -53.04457031 99.46199219 -54.29101562 99.47460938 C-56.02061523 99.47750977 -56.02061523 99.47750977 -57.78515625 99.48046875 C-59.37469116 99.48663208 -59.37469116 99.48663208 -60.99633789 99.49291992 C-63.5625 99.25 -63.5625 99.25 -65.5625 97.25 C-67.54606483 96.53591666 -69.54565437 95.86382258 -71.5625 95.25 C-71.5625 94.59 -71.5625 93.93 -71.5625 93.25 C-73.2125 93.25 -74.8625 93.25 -76.5625 93.25 C-76.5625 92.59 -76.5625 91.93 -76.5625 91.25 C-78.2125 90.59 -79.8625 89.93 -81.5625 89.25 C-81.5625 88.26 -81.5625 87.27 -81.5625 86.25 C-82.3978125 86.1571875 -82.3978125 86.1571875 -83.25 86.0625 C-86.55318042 84.9019231 -88.28144733 82.84786554 -90.5625 80.25 C-90.5625 79.59 -90.5625 78.93 -90.5625 78.25 C-91.2225 78.25 -91.8825 78.25 -92.5625 78.25 C-96.41863285 74.10681012 -96.5625 69.70648697 -96.5625 64.25 C-95.875 61.1875 -95.875 61.1875 -94.5625 59.25 C-92.4375 58.4375 -92.4375 58.4375 -90.5625 58.25 C-90.5625 57.59 -90.5625 56.93 -90.5625 56.25 C-83.97734716 53.33733624 -83.97734716 53.33733624 -81.1875 52.75 C-80.383125 52.5025 -80.383125 52.5025 -79.5625 52.25 C-79.2325 51.26 -78.9025 50.27 -78.5625 49.25 C-76.0875 48.755 -76.0875 48.755 -73.5625 48.25 C-73.5625 47.59 -73.5625 46.93 -73.5625 46.25 C-72.923125 46.146875 -72.28375 46.04375 -71.625 45.9375 C-70.944375 45.710625 -70.26375 45.48375 -69.5625 45.25 C-69.2325 44.26 -68.9025 43.27 -68.5625 42.25 C-66.95316458 41.27769318 -65.33596527 40.31577283 -63.6796875 39.42578125 C-61.27600083 38.09089253 -58.98577316 36.63393014 -56.6875 35.125 C-55.92695312 34.62742187 -55.16640625 34.12984375 -54.3828125 33.6171875 C-52.43419613 32.36555861 -52.43419613 32.36555861 -51.5625 30.25 C-49.27235999 29.36917692 -46.94902273 28.71696231 -44.59375 28.03125 C-42.37687525 27.44064164 -42.37687525 27.44064164 -41.5625 25.25 C-40.9025 25.25 -40.2425 25.25 -39.5625 25.25 C-39.5625 24.59 -39.5625 23.93 -39.5625 23.25 C-38.93601562 22.91226562 -38.30953125 22.57453125 -37.6640625 22.2265625 C-36.84679688 21.78054688 -36.02953125 21.33453125 -35.1875 20.875 C-33.96933594 20.21371094 -33.96933594 20.21371094 -32.7265625 19.5390625 C-30.45435698 18.3056107 -30.45435698 18.3056107 -28.5625 16.25 C-27.5725 16.25 -26.5825 16.25 -25.5625 16.25 C-25.5625 15.59 -25.5625 14.93 -25.5625 14.25 C-22.5925 13.26 -19.6225 12.27 -16.5625 11.25 C-16.5625 10.59 -16.5625 9.93 -16.5625 9.25 C-15.06640625 8.03125 -15.06640625 8.03125 -13.125 6.75 C-10.33718153 4.9634637 -10.33718153 4.9634637 -8.5625 2.25 C-5.65625947 0.43599492 -3.40120558 -0.02302 0 0 Z " fill="#FFFFFF" transform="translate(1535.5625,327.75)"/>
<path d="M0 0 C6.65393461 0.0834723 11.88028754 2.79551658 17.4375 6.25 C18.613125 6.7140625 18.613125 6.7140625 19.8125 7.1875 C23.23270941 8.57187048 26.24614559 10.39321198 29.4375 12.25 C30.13875 12.559375 30.84 12.86875 31.5625 13.1875 C36.0392005 15.72429695 39.46983629 20.1164684 42.4375 24.25 C42.685 25.3328125 42.685 25.3328125 42.9375 26.4375 C43.185 27.3346875 43.185 27.3346875 43.4375 28.25 C44.035625 28.53875 44.63375 28.8275 45.25 29.125 C48.51075884 30.80196169 49.67391609 33.08771161 51.4375 36.25 C52.1875 39.625 52.1875 39.625 52.4375 42.25 C53.0975 42.25 53.7575 42.25 54.4375 42.25 C55.11907937 45.39278784 55.77993058 48.53960853 56.4375 51.6875 C56.62828125 52.56599609 56.8190625 53.44449219 57.015625 54.34960938 C58.06823809 59.44350489 58.62894007 64.15577453 58.41015625 69.35961914 C58.34548052 71.47806442 58.34548052 71.47806442 59.4375 74.25 C58.98127488 77.86306593 58.07116364 81.39146094 57.25 84.9375 C57.04052734 85.90623047 56.83105469 86.87496094 56.61523438 87.87304688 C54.81197699 95.78704592 51.99824031 102.26770531 47.375 108.9375 C45.70464778 111.36939819 44.15356466 113.74688684 42.6875 116.3125 C42.06875 117.2715625 42.06875 117.2715625 41.4375 118.25 C40.7775 118.25 40.1175 118.25 39.4375 118.25 C39.4375 119.24 39.4375 120.23 39.4375 121.25 C38.4475 121.25 37.4575 121.25 36.4375 121.25 C36.23125 121.86875 36.025 122.4875 35.8125 123.125 C33.90043283 126.0800129 31.70969312 126.20568305 28.4375 127.25 C28.1075 128.24 27.7775 129.23 27.4375 130.25 C26.11446283 130.6221042 24.78012065 130.95630173 23.4375 131.25 C23.1075 131.91 22.7775 132.57 22.4375 133.25 C20.4575 133.25 18.4775 133.25 16.4375 133.25 C16.4375 133.91 16.4375 134.57 16.4375 135.25 C15.4475 135.25 14.4575 135.25 13.4375 135.25 C13.4375 135.91 13.4375 136.57 13.4375 137.25 C9.46556853 140.37940055 6.39519796 140.54162929 1.4375 140.25 C1.4375 140.91 1.4375 141.57 1.4375 142.25 C0.7775 142.25 0.1175 142.25 -0.5625 142.25 C-0.5625 141.59 -0.5625 140.93 -0.5625 140.25 C-1.8825 139.92 -3.2025 139.59 -4.5625 139.25 C-4.58582821 121.27430767 -4.60347879 103.29861926 -4.61431217 85.32291508 C-4.6194753 76.97707171 -4.62651831 68.63123773 -4.63793945 60.28540039 C-4.64788579 53.0138123 -4.65435331 45.74223101 -4.65658849 38.47063631 C-4.65789569 34.61800479 -4.66098208 30.76539272 -4.66823006 26.91276741 C-4.67498948 23.29067328 -4.67711712 19.66860672 -4.67560768 16.04650688 C-4.67601637 14.07502772 -4.68141197 12.10355159 -4.68692017 10.13208008 C-4.6855455 8.96955215 -4.68417084 7.80702423 -4.68275452 6.60926819 C-4.68367631 5.59253053 -4.6845981 4.57579287 -4.68554783 3.52824497 C-4.48320332 -0.21818732 -3.90755031 0.27421406 0 0 Z " fill="#FEFEFE" transform="translate(1370.5625,271.75)"/>
<path d="M0 0 C0.66 0.165 1.32 0.33 2 0.5 C5.03752598 1.00625433 7.87974936 0.95624295 10.94921875 0.8984375 C13 1 13 1 16.6875 2.0625 C19.84623284 3.22824002 19.84623284 3.22824002 22.5 2.5 C27.55954598 1.4880908 32.35647591 4.14259036 37 6 C37.66 6 38.32 6 39 6 C39 6.66 39 7.32 39 8 C39.969375 8.28875 40.93875 8.5775 41.9375 8.875 C45 10 45 10 46 12 C46.78375 12.28875 47.5675 12.5775 48.375 12.875 C51.38295958 14.16412553 52.35810265 15.2087745 54 18 C54.34227417 19.33106622 54.67751743 20.66400079 55 22 C55.66 22.33 56.32 22.66 57 23 C63.42299783 37.01942796 67.54218479 53.59919658 64 69 C63.34 69.99 62.68 70.98 62 72 C61.896875 72.78375 61.79375 73.5675 61.6875 74.375 C60.74292171 77.98157167 58.67483385 79.44957703 56 82 C55.278125 83.093125 54.55625 84.18625 53.8125 85.3125 C53.214375 86.199375 52.61625 87.08625 52 88 C51.34 88 50.68 88 50 88 C50 88.66 50 89.32 50 90 C44.52380952 95 44.52380952 95 42 95 C42 95.66 42 96.32 42 97 C35.11721153 100.2239641 29.80304484 102.05913461 22.14453125 101.96484375 C14.75476069 101.8776908 14.75476069 101.8776908 7.4375 102.75 C4 103 4 103 1.796875 101.54296875 C-0.72844937 97.96908578 -0.39005673 94.75725787 -0.1875 90.5625 C-0.1457061 88.93759874 -0.10796996 87.31258821 -0.07421875 85.6875 C-0.05536621 84.88957031 -0.03651367 84.09164062 -0.01708984 83.26953125 C0.01409654 79.12797964 -0.41199524 75.03416901 -0.78515625 70.9140625 C-0.9832032 68.22782567 -0.99997852 65.62824167 -0.9375 62.9375 C-0.88483134 58.8234927 -1.2198097 54.85700187 -1.71435547 50.77368164 C-2.86659744 41.09780359 -3.24591055 31.48642645 -3.29956055 21.75079346 C-3.30815806 20.25527228 -3.32179606 18.75977123 -3.34057617 17.26434326 C-3.3644146 15.14467015 -3.36713459 13.02603345 -3.36328125 10.90625 C-3.36626221 9.67197266 -3.36924316 8.43769531 -3.37231445 7.16601562 C-2.97655475 3.80063079 -2.29154277 2.43279967 0 0 Z " fill="#FFFFFF" transform="translate(784,268)"/>
<path d="M0 0 C2.27290408 1.4487795 4.06279033 1.48884624 6.69140625 1.078125 C7.18640625 2.068125 7.18640625 2.068125 7.69140625 3.078125 C8.68140625 3.408125 9.67140625 3.738125 10.69140625 4.078125 C10.69140625 4.738125 10.69140625 5.398125 10.69140625 6.078125 C11.35140625 6.078125 12.01140625 6.078125 12.69140625 6.078125 C13.68140625 7.563125 13.68140625 7.563125 14.69140625 9.078125 C15.53703125 9.573125 16.38265625 10.068125 17.25390625 10.578125 C19.69140625 12.078125 19.69140625 12.078125 20.69140625 15.078125 C21.35140625 15.078125 22.01140625 15.078125 22.69140625 15.078125 C22.69140625 16.728125 22.69140625 18.378125 22.69140625 20.078125 C23.35140625 20.078125 24.01140625 20.078125 24.69140625 20.078125 C23.99199029 23.22549682 22.93061927 26.10401376 21.69140625 29.078125 C21.03140625 29.078125 20.37140625 29.078125 19.69140625 29.078125 C19.36140625 30.068125 19.03140625 31.058125 18.69140625 32.078125 C15.70681496 34.03354688 14.42725834 34.078125 10.69140625 34.078125 C10.03140625 35.398125 9.37140625 36.718125 8.69140625 38.078125 C8.03140625 38.078125 7.37140625 38.078125 6.69140625 38.078125 C6.69140625 38.738125 6.69140625 39.398125 6.69140625 40.078125 C5.92828125 40.34625 5.16515625 40.614375 4.37890625 40.890625 C1.78643699 42.03613467 0.60325081 43.07524022 -1.30859375 45.078125 C-1.96859375 45.078125 -2.62859375 45.078125 -3.30859375 45.078125 C-3.63859375 46.068125 -3.96859375 47.058125 -4.30859375 48.078125 C-9.53081597 51.078125 -9.53081597 51.078125 -12.30859375 51.078125 C-12.30859375 51.738125 -12.30859375 52.398125 -12.30859375 53.078125 C-12.86546875 53.305 -13.42234375 53.531875 -13.99609375 53.765625 C-16.53074832 55.06279465 -16.53074832 55.06279465 -18.87109375 57.703125 C-21.30859375 60.078125 -21.30859375 60.078125 -24.30859375 60.078125 C-24.30859375 60.738125 -24.30859375 61.398125 -24.30859375 62.078125 C-27.1863117 63.99660364 -30.19486003 65.57891988 -33.30859375 67.078125 C-33.30859375 67.738125 -33.30859375 68.398125 -33.30859375 69.078125 C-34.29859375 69.078125 -35.28859375 69.078125 -36.30859375 69.078125 C-36.63859375 70.068125 -36.96859375 71.058125 -37.30859375 72.078125 C-43.17066272 76.13648044 -43.17066272 76.13648044 -46.74609375 75.953125 C-47.59171875 75.664375 -48.43734375 75.375625 -49.30859375 75.078125 C-50.74392295 74.71526088 -52.18160217 74.36160806 -53.62109375 74.015625 C-55.44640625 73.5515625 -55.44640625 73.5515625 -57.30859375 73.078125 C-57.30859375 70.768125 -57.30859375 68.458125 -57.30859375 66.078125 C-57.96859375 66.078125 -58.62859375 66.078125 -59.30859375 66.078125 C-63.78995403 53.91443282 -64.14682915 43.15026175 -61.55859375 30.578125 C-61.40181152 29.77568359 -61.2450293 28.97324219 -61.08349609 28.14648438 C-59.81250129 22.43858441 -59.81250129 22.43858441 -57.16796875 20.546875 C-56.554375 20.3921875 -55.94078125 20.2375 -55.30859375 20.078125 C-55.30859375 18.758125 -55.30859375 17.438125 -55.30859375 16.078125 C-54.64859375 16.078125 -53.98859375 16.078125 -53.30859375 16.078125 C-53.08171875 15.52125 -52.85484375 14.964375 -52.62109375 14.390625 C-50.35258926 10.39373614 -47.68959429 7.53845851 -43.30859375 6.078125 C-43.30859375 5.418125 -43.30859375 4.758125 -43.30859375 4.078125 C-41.43622004 3.11467056 -39.56056385 2.15759398 -37.68359375 1.203125 C-36.63945313 0.66945313 -35.5953125 0.13578125 -34.51953125 -0.4140625 C-23.40973067 -5.63107348 -10.37464145 -7.5373178 0 0 Z " fill="#FFFFFF" transform="translate(1527.30859375,279.921875)"/>
<path d="M0 0 C1.65 0 3.3 0 5 0 C5 0.66 5 1.32 5 2 C3.35 2 1.7 2 0 2 C0 1.34 0 0.68 0 0 Z " fill="#FFFFFF" transform="translate(1155,376)"/>
<path d="M0 0 C1.65 0 3.3 0 5 0 C4.67 0.66 4.34 1.32 4 2 C2.68 2 1.36 2 0 2 C0 1.34 0 0.68 0 0 Z " fill="#FFFFFF" transform="translate(1441,376)"/>
<path d="M0 0 C0.66 0.66 1.32 1.32 2 2 C1.01 1.67 0.02 1.34 -1 1 C-0.67 0.67 -0.34 0.34 0 0 Z " fill="#FFFFFF" transform="translate(753,266)"/>
<path d="M0 0 C3 1 3 1 3 1 Z " fill="#FFFFFF" transform="translate(1291,406)"/>
<path d="M0 0 C3 1 3 1 3 1 Z " fill="#FFFFFF" transform="translate(1004,406)"/>
<path d="M0 0 C2 1 2 1 2 1 Z " fill="#FFFFFF" transform="translate(1292,411)"/>
<path d="M0 0 C2 1 2 1 2 1 Z " fill="#FFFFFF" transform="translate(730,268)"/>
<path d="" fill="#FFFFFF" transform="translate(0,0)"/>
<path d="" fill="#FFFFFF" transform="translate(0,0)"/>
<path d="" fill="#FFFFFF" transform="translate(0,0)"/>
</svg>
